<?xml version="1.0" encoding="UTF-8" standalone="no"?>
<!-- Created with Inkscape (http://www.inkscape.org/) -->

<svg
   width="32"
   height="32"
   viewBox="0 0 32 32"
   version="1.1"
   id="svg2112"
   inkscape:version="1.4 (86a8ad7, 2024-10-11)"
   sodipodi:docname="csRenamer.svg"
   xmlns:inkscape="http://www.inkscape.org/namespaces/inkscape"
   xmlns:sodipodi="http://sodipodi.sourceforge.net/DTD/sodipodi-0.dtd"
   xmlns:xlink="http://www.w3.org/1999/xlink"
   xmlns="http://www.w3.org/2000/svg"
   xmlns:svg="http://www.w3.org/2000/svg">
  <sodipodi:namedview
     id="namedview2114"
     pagecolor="#ffffff"
     bordercolor="#000000"
     borderopacity="0.25"
     inkscape:showpageshadow="2"
     inkscape:pageopacity="0.0"
     inkscape:pagecheckerboard="0"
     inkscape:deskcolor="#d1d1d1"
     inkscape:document-units="px"
     showgrid="false"
     inkscape:zoom="8.8940775"
     inkscape:cx="17.033807"
     inkscape:cy="11.97426"
     inkscape:window-width="1680"
     inkscape:window-height="979"
     inkscape:window-x="-8"
     inkscape:window-y="-8"
     inkscape:window-maximized="1"
     inkscape:current-layer="svg2112"
     showguides="false" />
  <defs
     id="defs2109">
    <linearGradient
       id="linearGradient7"
       inkscape:collect="always">
      <stop
         style="stop-color:#000000;stop-opacity:1;"
         offset="0"
         id="stop7" />
      <stop
         style="stop-color:#424242;stop-opacity:1;"
         offset="1"
         id="stop8" />
    </linearGradient>
    <linearGradient
       id="linearGradient5"
       inkscape:collect="always">
      <stop
         style="stop-color:#2d2d2d;stop-opacity:1;"
         offset="0"
         id="stop5" />
      <stop
         style="stop-color:#000000;stop-opacity:1;"
         offset="1"
         id="stop6" />
    </linearGradient>
    <linearGradient
       inkscape:collect="always"
       xlink:href="#linearGradient1353"
       id="linearGradient1856"
       x1="1.6220242"
       y1="0.033773441"
       x2="4.7624664"
       y2="4.2526746"
       gradientUnits="userSpaceOnUse"
       gradientTransform="matrix(7.559055,0,0,7.559055,-8,0)" />
    <linearGradient
       inkscape:collect="always"
       id="linearGradient1353">
      <stop
         style="stop-color:#fafafa;stop-opacity:1;"
         offset="0"
         id="stop1349" />
      <stop
         style="stop-color:#c7cdd1;stop-opacity:1"
         offset="1"
         id="stop1351" />
    </linearGradient>
    <linearGradient
       inkscape:collect="always"
       xlink:href="#linearGradient2287"
       id="linearGradient2043"
       x1="3.7041669"
       y1="0.92604166"
       x2="5.0270834"
       y2="0.92604166"
       gradientUnits="userSpaceOnUse"
       gradientTransform="matrix(7.559055,0,0,7.559055,-10,-2)" />
    <linearGradient
       inkscape:collect="always"
       id="linearGradient2287">
      <stop
         style="stop-color:#6b7c85;stop-opacity:1"
         offset="0"
         id="stop2283" />
      <stop
         style="stop-color:#92a0a7;stop-opacity:1"
         offset="1"
         id="stop2285" />
    </linearGradient>
    <linearGradient
       inkscape:collect="always"
       xlink:href="#linearGradient2287"
       id="linearGradient3"
       gradientUnits="userSpaceOnUse"
       gradientTransform="matrix(5.6692912,0,0,5.6692912,3.781791,7.3201436)"
       x1="3.7041669"
       y1="0.92604166"
       x2="5.0270834"
       y2="0.92604166" />
    <linearGradient
       inkscape:collect="always"
       xlink:href="#linearGradient1353"
       id="linearGradient4"
       gradientUnits="userSpaceOnUse"
       gradientTransform="matrix(5.6692912,0,0,5.6692912,5.281791,8.8201436)"
       x1="1.6220242"
       y1="0.033773441"
       x2="4.7624664"
       y2="4.2526746" />
    <linearGradient
       inkscape:collect="always"
       xlink:href="#linearGradient5"
       id="linearGradient6"
       x1="-15.17864"
       y1="9.4444866"
       x2="-15.403509"
       y2="22.936611"
       gradientUnits="userSpaceOnUse"
       gradientTransform="matrix(0.75,0,0,0.75,33.353727,8.8201431)" />
    <linearGradient
       inkscape:collect="always"
       xlink:href="#linearGradient7"
       id="linearGradient8"
       x1="16.126305"
       y1="23.757973"
       x2="16.126305"
       y2="8.3544645"
       gradientUnits="userSpaceOnUse" />
  </defs>
  <g
     id="g3"
     transform="translate(-0.8168143,-0.6766968)">
    <g
       id="g9"
       transform="matrix(0.75,0,0,0.75,-1.6481624,1.3756563)">
      <path
         id="rect944"
         style="fill:url(#linearGradient1856);fill-opacity:1;stroke-width:2"
         d="m 8,2 h 10 l 2,6 6,2 v 18 c 0,1.108 -0.892002,2 -2.000002,2 H 8 C 6.892,30 6,29.108 6,28 V 4 C 6,2.892 6.892,2 8,2 Z"
         sodipodi:nodetypes="scccssssss" />
      <path
         style="font-size:21.408px;font-family:'MesloLGL Nerd Font';-inkscape-font-specification:'MesloLGL Nerd Font';fill:url(#linearGradient8);stroke-width:1.784"
         d="m 15.994773,10.057399 -2.226516,7.986188 h 4.453032 z M 14.719492,8.1967426 h 2.561016 l 4.777078,15.6065164 h -2.184703 l -1.149844,-4.066266 h -5.466985 l -1.128937,4.066266 H 9.9424135 Z"
         id="text1"
         aria-label="A" />
      <path
         id="rect1356"
         style="fill:url(#linearGradient2043);fill-opacity:1;stroke-width:2"
         d="M 26,10 H 20 C 18.892,10 18,9.108 18,8 V 2 Z"
         sodipodi:nodetypes="csscc" />
    </g>
    <g
       id="g1"
       transform="translate(0,-2)">
      <path
         id="path2"
         style="fill:url(#linearGradient4);fill-opacity:1;stroke-width:1.5"
         d="m 17.281791,10.320144 h 7.5 l 1.5,4.5 4.5,1.5 v 13.5 c 0,0.831 -0.669002,1.5 -1.500002,1.5 H 17.281791 c -0.831,0 -1.5,-0.669 -1.5,-1.5 v -18 c 0,-0.831 0.669,-1.5 1.5,-1.5 z"
         sodipodi:nodetypes="scccssssss" />
      <path
         style="font-size:21.408px;font-family:'MesloLGL Nerd Font';-inkscape-font-specification:'MesloLGL Nerd Font';fill:url(#linearGradient6);fill-opacity:1;stroke-width:1.338"
         d="m 21.067035,20.769185 v 4.601988 h 1.873723 q 1.379812,0 1.967801,-0.478231 0.587988,-0.48607 0.587988,-1.591488 0,-1.458211 -0.619348,-1.991321 -0.619347,-0.540949 -1.936441,-0.540949 z m 0,-4.500071 v 3.214336 h 1.842364 q 1.144617,0 1.654207,-0.439031 0.51743,-0.439032 0.51743,-1.105419 0,-0.885902 -0.509591,-1.277894 -0.501751,-0.391992 -1.662046,-0.391992 z m -1.591489,-1.301413 h 3.465211 q 1.795324,0 2.767466,0.776144 0.972141,0.776143 0.972141,2.195156 0,0.760465 -0.517431,1.379812 -0.509589,0.619348 -1.536609,0.776145 1.152457,0.172476 1.803165,0.98782 0.658546,0.807505 0.658546,2.375472 0,1.591489 -1.0427,2.406833 -1.042698,0.807504 -3.104578,0.807504 h -3.465211 z"
         id="text3"
         aria-label="B" />
      <path
         id="path3"
         style="fill:url(#linearGradient3);fill-opacity:1;stroke-width:1.5"
         d="m 30.781791,16.320144 h -4.5 c -0.831,0 -1.5,-0.669 -1.5,-1.5 v -4.5 z"
         sodipodi:nodetypes="csscc" />
    </g>
    <g
       id="g2"
       transform="translate(-3.035728,1.9113843)">
      <path
         d="m 9.9536952,17.035672 2.0256748,-3.726743 5.50654,2.694851 -2.732895,5.236723 -1.75968,3.845965 -3.014365,-6.39049 C 9.6154429,17.920587 9.7547109,17.390068 9.9535243,17.035672 Z"
         style="fill:#3e2c5c;fill-opacity:1;stroke-width:0.339249"
         id="path138735-0"
         sodipodi:nodetypes="ccccccc" />
      <path
         d="m 10.609185,20.027856 11.475267,-0.01019 -0.01933,-2.527821 5.518012,5.439619 -5.512272,5.636889 0.02639,-2.513732 h -7.557024 c -0.64893,-0.0057 -1.183169,-0.342752 -1.546894,-0.966314 z"
         style="fill:#7150a8;fill-opacity:1;stroke-width:0.339249"
         id="path142126-6"
         sodipodi:nodetypes="ccccccccc" />
    </g>
  </g>
</svg>
